<svg xmlns="http://www.w3.org/2000/svg" version="1.1" viewBox="-10 0 115 90">
  <style type="text/css">
    .st0{fill:#231F20;}
  </style>
  <path class="st0" d="M 58.815 81.815 C 36.715 81.815 18.815 63.915 18.815 41.815 C 18.815 19.715 36.715 1.815 58.815 1.815 C 80.915 1.815 98.815 19.715 98.815 41.815 C 98.815 63.915 80.915 81.815 58.815 81.815 Z M 58.815 5.615 C 38.815 5.615 22.615 21.815 22.615 41.815 C 22.615 61.815 38.815 78.015 58.815 78.015 C 78.815 78.015 95.015 61.815 95.015 41.815 C 95.015 21.815 78.815 5.615 58.815 5.615 Z M 79.148 22.402 L 53.915 36.915 L 56.515 39.515 C 57.815 38.215 59.915 38.215 61.115 39.515 C 62.415 40.815 62.415 42.915 61.115 44.115 L 63.715 46.715 L 79.148 22.402 Z M 63.715 46.715 L 61.115 44.115 C 59.815 45.415 57.715 45.415 56.515 44.115 C 55.215 42.815 55.215 40.715 56.515 39.515 L 53.915 36.915 L 39.057 61.91 L 63.715 46.715 Z" style="transform-box: fill-box; transform-origin: 50% 50%;" transform="matrix(0.97018, -0.242385, 0.242385, 0.97018, 0.000006, 0.000006)"/>
  <path style="fill: none; stroke-width: 3.6px; stroke-linecap: round; stroke-linejoin: round; stroke: rgb(35, 31, 32);" d="M 21.832 32.248 C 19.746 40.747 7.259 80.401 -3.921 80.278"/>
</svg>