<svg width="523.8" height="97.15" viewBox="0 0 523.8 97.15" xmlns="http://www.w3.org/2000/svg"><g id="svgGroup" stroke-linecap="round" fill-rule="evenodd" font-size="9pt" stroke="#000" stroke-width="0.25mm" fill="#000" style="stroke:#000;stroke-width:0.25mm;fill:#000"><path d="M 521.5 19 L 523.8 25.8 Q 520.25 26.8 516.45 27 Q 512.65 27.2 508.35 27.2 A 18.652 18.652 0 0 1 511.704 29.166 A 13.531 13.531 0 0 1 515 32.625 A 13.626 13.626 0 0 1 517.191 39.766 A 16.479 16.479 0 0 1 517.2 40.3 Q 517.2 45.5 514.95 49.575 Q 512.7 53.65 508.475 55.95 Q 504.498 58.115 498.903 58.242 A 30.998 30.998 0 0 1 498.2 58.25 A 52.833 52.833 0 0 1 496.464 58.223 Q 495.568 58.194 494.802 58.132 A 21.257 21.257 0 0 1 493.4 57.975 Q 491.55 57.7 489.8 57.1 Q 488.55 58.05 487.675 59.6 Q 486.8 61.15 486.8 62.85 A 4.189 4.189 0 0 0 488.135 65.991 A 5.375 5.375 0 0 0 488.425 66.25 Q 489.804 67.396 493.002 67.569 A 22.164 22.164 0 0 0 494.2 67.6 L 503.9 67.6 A 23.851 23.851 0 0 1 509.571 68.252 A 20.312 20.312 0 0 1 513.075 69.45 A 18.502 18.502 0 0 1 516.953 71.763 A 15.205 15.205 0 0 1 519.625 74.45 Q 522.05 77.6 522.05 81.55 A 14.371 14.371 0 0 1 521.089 86.917 Q 519.565 90.737 515.625 93.175 Q 509.2 97.15 497.85 97.15 Q 490.005 97.15 485.356 95.527 A 18.139 18.139 0 0 1 485.35 95.525 A 15.415 15.415 0 0 1 482.232 94.053 A 10.554 10.554 0 0 1 478.675 90.475 Q 476.65 87.05 476.65 81.65 L 482.35 81.65 A 14.083 14.083 0 0 0 482.529 83.964 Q 482.744 85.252 483.216 86.309 A 7.738 7.738 0 0 0 483.625 87.1 Q 484.701 88.914 487.217 89.963 A 13.12 13.12 0 0 0 488.2 90.325 Q 491.5 91.4 497.65 91.4 Q 502.004 91.4 505.284 90.869 A 26.646 26.646 0 0 0 507.675 90.375 A 17.867 17.867 0 0 0 510.174 89.544 Q 511.45 89.004 512.43 88.303 A 8.53 8.53 0 0 0 513.65 87.25 A 7.183 7.183 0 0 0 515.615 82.781 A 9.584 9.584 0 0 0 515.65 81.95 A 6.997 6.997 0 0 0 515.039 78.977 Q 514.318 77.419 512.747 76.326 A 9.346 9.346 0 0 0 511.8 75.75 A 16.905 16.905 0 0 0 506.978 74.093 Q 504.912 73.7 502.55 73.7 L 492.85 73.7 A 21.356 21.356 0 0 1 489.442 73.447 Q 485.671 72.836 483.55 70.75 A 10.653 10.653 0 0 1 481.553 68.11 A 8.721 8.721 0 0 1 480.55 64 A 8.495 8.495 0 0 1 481.343 60.461 A 10.833 10.833 0 0 1 481.975 59.275 A 11.906 11.906 0 0 1 483.891 56.925 Q 484.842 56.01 486.064 55.176 A 20.227 20.227 0 0 1 486.25 55.05 A 19.479 19.479 0 0 1 482.865 52.808 A 14.54 14.54 0 0 1 479.75 49.25 A 14.128 14.128 0 0 1 477.958 44.565 A 19.822 19.822 0 0 1 477.6 40.7 A 17.759 17.759 0 0 1 478.571 34.762 A 16.2 16.2 0 0 1 480.15 31.5 A 17.713 17.713 0 0 1 486.62 25.439 A 21.17 21.17 0 0 1 487.25 25.1 A 20.863 20.863 0 0 1 493.825 23.031 A 27.186 27.186 0 0 1 497.8 22.75 A 219.69 219.69 0 0 0 501.052 22.68 Q 504.767 22.571 507.472 22.343 A 63.346 63.346 0 0 0 508.725 22.225 Q 512.8 21.8 515.625 21 A 59.729 59.729 0 0 0 519.616 19.711 A 70.436 70.436 0 0 0 521.5 19 Z M 95.45 23.75 L 101.9 23.75 L 83.15 76.7 Q 81.45 81.55 78.95 85.9 Q 76.45 90.25 72.3 93.275 A 18.579 18.579 0 0 1 67.525 95.744 Q 65.352 96.513 62.775 96.923 A 34.092 34.092 0 0 1 61.5 97.1 L 60.4 91.7 A 36.248 36.248 0 0 0 63.882 90.9 Q 65.522 90.431 66.871 89.839 A 15.651 15.651 0 0 0 69.025 88.7 Q 72.15 86.7 73.925 83.6 A 33.718 33.718 0 0 0 75.594 80.241 Q 76.395 78.392 77.1 76.25 L 75.05 76.25 L 56.2 23.75 L 62.9 23.75 L 79.45 70.95 L 95.45 23.75 Z M 461.15 23.75 A 62.71 62.71 0 0 0 459.825 23.434 A 52.749 52.749 0 0 0 457.725 23 A 14.734 14.734 0 0 0 457.673 22.991 Q 456.857 22.843 455.936 22.771 A 24.048 24.048 0 0 0 454.05 22.7 Q 450.806 22.7 448.151 23.407 A 14.759 14.759 0 0 0 442.375 26.325 A 22.177 22.177 0 0 0 441.84 26.788 Q 439.682 28.717 437.84 31.363 A 36.739 36.739 0 0 0 434.95 36.35 L 433.8 23.75 L 420.5 23.75 L 420.5 29 L 429.05 29 L 429.05 71.05 L 420.5 71.05 L 420.5 76.25 L 446.05 76.25 L 446.05 71.05 L 435.25 71.05 L 435.25 46.65 Q 438.05 37.3 442.5 32.975 Q 446.95 28.65 453.3 28.65 Q 454.203 28.65 455 28.714 A 15.073 15.073 0 0 1 456.325 28.875 Q 457.153 29.016 458.147 29.264 A 38.472 38.472 0 0 1 459.4 29.6 L 461.15 23.75 L 454.85 23.75 L 454.45 30 L 454.45 40.25 L 460.45 40.25 L 461.15 23.75 Z M 277.55 28.45 L 274.65 33.05 A 28.546 28.546 0 0 0 269.077 29.999 A 32.025 32.025 0 0 0 268.2 29.65 Q 265.44 28.601 261.533 28.367 A 39.118 39.118 0 0 0 259.2 28.3 Q 252.25 28.3 249.45 30.5 Q 246.65 32.7 246.65 36.05 Q 246.65 38.65 248.025 40.325 Q 249.4 42 252.55 43.275 Q 255.7 44.55 261.05 46 Q 266.159 47.339 269.988 49.22 A 34.632 34.632 0 0 1 270.05 49.25 Q 273.9 51.15 276.05 54.2 A 11.164 11.164 0 0 1 277.728 57.949 Q 278.111 59.475 278.183 61.262 A 20.841 20.841 0 0 1 278.2 62.1 Q 278.2 67.65 275.075 70.975 A 17.056 17.056 0 0 1 269.179 75.012 A 21.305 21.305 0 0 1 267.05 75.775 Q 262.15 77.25 256.85 77.25 A 39.226 39.226 0 0 1 251.752 76.937 Q 249.095 76.589 246.85 75.851 A 20.968 20.968 0 0 1 245.125 75.2 A 35.735 35.735 0 0 1 241.021 73.134 Q 238.88 71.867 237.2 70.4 L 241.05 65.85 Q 244.15 68.45 248.2 70.025 A 23.537 23.537 0 0 0 256.033 71.586 A 26.974 26.974 0 0 0 256.9 71.6 Q 261.56 71.6 264.83 70.354 A 12.769 12.769 0 0 0 267.425 69.025 A 9.651 9.651 0 0 0 269.642 67.014 A 7.471 7.471 0 0 0 271.25 62.25 A 13.874 13.874 0 0 0 271.092 60.104 Q 270.889 58.808 270.425 57.725 A 5.48 5.48 0 0 0 269.365 56.145 Q 268.813 55.555 268.046 55.011 A 12.947 12.947 0 0 0 266.875 54.275 A 17.283 17.283 0 0 0 264.999 53.385 Q 262.473 52.349 258.5 51.4 A 87.53 87.53 0 0 1 253.848 50.118 Q 251.746 49.472 249.915 48.772 A 49.285 49.285 0 0 1 248.725 48.3 A 19.794 19.794 0 0 1 245.683 46.746 Q 243.686 45.483 242.35 43.85 A 9.527 9.527 0 0 1 240.508 40.099 Q 240.151 38.689 240.106 37.029 A 17.833 17.833 0 0 1 240.1 36.55 A 12.736 12.736 0 0 1 240.681 32.635 A 10.841 10.841 0 0 1 242.575 29.125 A 14.292 14.292 0 0 1 246.736 25.648 A 18.788 18.788 0 0 1 249.375 24.425 A 25.088 25.088 0 0 1 255.064 23.048 A 32.51 32.51 0 0 1 259.15 22.8 A 38.8 38.8 0 0 1 264.23 23.116 Q 266.918 23.471 269.224 24.226 A 23.138 23.138 0 0 1 269.875 24.45 A 34.685 34.685 0 0 1 273.779 26.12 Q 275.748 27.117 277.339 28.293 A 21.095 21.095 0 0 1 277.55 28.45 Z M 138.9 52.85 L 122.95 76.25 L 115.6 76.25 L 135.4 48.5 L 118.2 23.75 L 125.85 23.75 L 139.15 44.1 L 152.75 23.75 L 160.2 23.75 L 142.75 48.2 L 162.5 76.25 L 154.45 76.25 L 138.9 52.85 Z M 6.2 71 L 6.2 96.3 L 0 97.15 L 0 23.75 L 5.1 23.75 L 5.8 31.5 Q 8.6 27.5 12.675 25.15 A 17.709 17.709 0 0 1 20.862 22.821 A 21.138 21.138 0 0 1 21.8 22.8 Q 27.368 22.8 31.127 24.921 A 13.124 13.124 0 0 1 33 26.2 A 17.09 17.09 0 0 1 37.435 31.836 A 23.221 23.221 0 0 1 38.95 35.725 A 42.043 42.043 0 0 1 40.271 42.134 Q 40.75 45.798 40.75 50 A 49.036 49.036 0 0 1 40.24 57.243 A 36.595 36.595 0 0 1 38.575 64.05 A 23.555 23.555 0 0 1 35.928 69.392 A 18.972 18.972 0 0 1 31.925 73.725 A 16.03 16.03 0 0 1 25.182 76.794 A 22.83 22.83 0 0 1 20.5 77.25 Q 11.55 77.25 6.2 71 Z M 182.65 23.75 L 204.95 23.75 L 204.95 70.85 L 220.2 70.85 L 220.2 76.25 L 182.15 76.25 L 182.15 70.85 L 198.75 70.85 L 198.75 29.15 L 182.65 29.15 L 182.65 23.75 Z M 384.642 23.35 A 25.527 25.527 0 0 0 379.2 22.8 Q 372 22.8 367.125 26.275 A 19.693 19.693 0 0 0 363.146 30.047 A 22.895 22.895 0 0 0 359.8 35.9 A 33.304 33.304 0 0 0 357.888 42.971 A 45.02 45.02 0 0 0 357.35 50.1 A 45.731 45.731 0 0 0 357.831 56.888 A 33.535 33.535 0 0 0 359.775 64.275 A 25.145 25.145 0 0 0 360.791 66.521 A 19.994 19.994 0 0 0 367.025 73.825 A 17.97 17.97 0 0 0 373.592 76.685 A 25.035 25.035 0 0 0 379.05 77.25 A 24.573 24.573 0 0 0 383.492 76.865 A 17.885 17.885 0 0 0 391.025 73.675 A 20.455 20.455 0 0 0 394.851 69.981 A 23.596 23.596 0 0 0 398.3 63.95 Q 400.75 57.8 400.75 50 Q 400.75 45.85 400.156 42.25 A 33.17 33.17 0 0 0 398.375 35.6 A 24.413 24.413 0 0 0 397.31 33.236 A 19.258 19.258 0 0 0 391.2 26.15 A 18.036 18.036 0 0 0 384.642 23.35 Z M 379.2 28.25 A 16.285 16.285 0 0 0 374.535 28.882 A 12.133 12.133 0 0 0 367.975 33.6 A 16.995 16.995 0 0 0 365.72 38.195 Q 364.15 42.957 364.15 50.1 A 50.935 50.935 0 0 0 364.447 55.794 Q 365.205 62.512 367.9 66.375 A 12.186 12.186 0 0 0 376.827 71.619 A 18.216 18.216 0 0 0 379.05 71.75 Q 386.45 71.75 390.2 66.375 Q 393.795 61.222 393.944 50.899 A 62.516 62.516 0 0 0 393.95 50 A 52.472 52.472 0 0 0 393.655 44.235 Q 392.977 38.12 390.738 34.393 A 14.061 14.061 0 0 0 390.225 33.6 A 12.074 12.074 0 0 0 381.394 28.381 A 17.827 17.827 0 0 0 379.2 28.25 Z M 6.2 37.25 L 6.2 64.45 Q 8.4 67.7 11.9 69.65 Q 15.4 71.6 19.5 71.6 A 15.702 15.702 0 0 0 23.984 70.996 A 11.385 11.385 0 0 0 30.375 66.25 A 17.452 17.452 0 0 0 32.447 61.79 Q 33.95 57.033 33.95 49.9 Q 33.95 42.9 32.55 38.05 A 19.949 19.949 0 0 0 31.286 34.736 Q 30.361 32.867 29.102 31.503 A 11.309 11.309 0 0 0 28.225 30.65 A 10.169 10.169 0 0 0 23.284 28.325 A 14.229 14.229 0 0 0 20.7 28.1 Q 15.85 28.1 12.15 31.025 A 32.14 32.14 0 0 0 8.634 34.233 A 24.995 24.995 0 0 0 6.2 37.25 Z M 497.65 27.65 A 21.243 21.243 0 0 0 493.818 27.972 Q 491.721 28.357 490.094 29.204 A 9.558 9.558 0 0 0 487.275 31.4 A 13.156 13.156 0 0 0 484.136 38.573 A 17.668 17.668 0 0 0 484 40.8 A 15.434 15.434 0 0 0 484.688 45.501 A 12.828 12.828 0 0 0 487.35 50.175 A 10.251 10.251 0 0 0 491.675 53.006 Q 494.325 53.95 497.95 53.95 Q 502.857 53.95 505.889 51.648 A 9.82 9.82 0 0 0 507.2 50.45 A 11.59 11.59 0 0 0 509.788 45.658 Q 510.285 43.874 510.378 41.749 A 22.777 22.777 0 0 0 510.4 40.75 Q 510.4 36.284 508.842 33.303 A 10.058 10.058 0 0 0 507.2 31 A 10.084 10.084 0 0 0 502.911 28.386 Q 501.287 27.863 499.313 27.712 A 21.773 21.773 0 0 0 497.65 27.65 Z M 311.391 66.173 A 8.301 8.301 0 0 0 310.9 69.05 A 9.865 9.865 0 0 0 310.906 69.407 A 8.312 8.312 0 0 0 311.95 73.225 Q 313 75.1 314.8 76.175 A 7.366 7.366 0 0 0 316.408 76.891 A 8.398 8.398 0 0 0 318.9 77.25 A 9.949 9.949 0 0 0 319.959 77.195 A 7.959 7.959 0 0 0 323.15 76.175 Q 325 75.1 326.05 73.225 A 8.062 8.062 0 0 0 326.604 72.012 A 8.689 8.689 0 0 0 327.1 69.05 A 9.466 9.466 0 0 0 327.095 68.753 A 7.954 7.954 0 0 0 326.05 64.975 Q 325 63.15 323.15 62.1 A 7.766 7.766 0 0 0 321.295 61.347 A 9.331 9.331 0 0 0 318.9 61.05 A 9.504 9.504 0 0 0 318.055 61.087 A 7.74 7.74 0 0 0 314.8 62.1 Q 313 63.15 311.95 64.975 A 7.726 7.726 0 0 0 311.391 66.173 Z M 200.728 0.196 A 6.412 6.412 0 0 0 199.1 0 A 6.412 6.412 0 0 0 198.418 0.036 A 4.681 4.681 0 0 0 195.45 1.45 Q 194.05 2.9 194.05 4.95 A 6.633 6.633 0 0 0 194.06 5.323 A 5.051 5.051 0 0 0 195.45 8.625 Q 196.85 10.1 199.1 10.1 A 6.697 6.697 0 0 0 200.271 10.002 A 4.636 4.636 0 0 0 202.9 8.625 Q 204.3 7.15 204.3 4.95 Q 204.3 2.9 202.9 1.45 A 4.562 4.562 0 0 0 200.728 0.196 Z" vector-effect="non-scaling-stroke"/></g></svg>